<svg width="24" height="24" viewBox="0 0 24 24" fill="none" xmlns="http://www.w3.org/2000/svg">
<g clip-path="url(#clip0_143_124)">
<path d="M12.0002 14.5002C13.3809 14.5002 14.5002 13.3809 14.5002 12.0002C14.5002 10.6195 13.3809 9.50016 12.0002 9.50016C10.6195 9.50016 9.50016 10.6195 9.50016 12.0002C9.50016 13.3809 10.6195 14.5002 12.0002 14.5002Z" stroke="#FAF9F6" stroke-width="1.2" stroke-linecap="round" stroke-linejoin="round"/>
<path d="M18.1668 14.5002C18.0559 14.7515 18.0228 15.0303 18.0718 15.3007C18.1208 15.571 18.2497 15.8204 18.4418 16.0168L18.4918 16.0668C18.6468 16.2216 18.7697 16.4054 18.8536 16.6078C18.9375 16.8101 18.9806 17.027 18.9806 17.246C18.9806 17.465 18.9375 17.6819 18.8536 17.8842C18.7697 18.0866 18.6468 18.2704 18.4918 18.4252C18.337 18.5801 18.1532 18.7031 17.9509 18.7869C17.7486 18.8708 17.5317 18.914 17.3127 18.914C17.0936 18.914 16.8768 18.8708 16.6744 18.7869C16.4721 18.7031 16.2883 18.5801 16.1335 18.4252L16.0835 18.3752C15.8871 18.183 15.6376 18.0542 15.3673 18.0052C15.097 17.9561 14.8182 17.9892 14.5668 18.1002C14.3204 18.2058 14.1101 18.3812 13.9621 18.6048C13.814 18.8283 13.7346 19.0903 13.7335 19.3585V19.5002C13.7335 19.9422 13.5579 20.3661 13.2453 20.6787C12.9328 20.9912 12.5089 21.1668 12.0668 21.1668C11.6248 21.1668 11.2009 20.9912 10.8883 20.6787C10.5758 20.3661 10.4002 19.9422 10.4002 19.5002V19.4252C10.3937 19.1493 10.3044 18.8818 10.1439 18.6574C9.98341 18.433 9.75911 18.2621 9.50016 18.1668C9.24882 18.0559 8.97 18.0228 8.69967 18.0718C8.42934 18.1208 8.17989 18.2497 7.9835 18.4418L7.9335 18.4918C7.77871 18.6468 7.59489 18.7697 7.39256 18.8536C7.19023 18.9375 6.97335 18.9806 6.75433 18.9806C6.5353 18.9806 6.31843 18.9375 6.1161 18.8536C5.91377 18.7697 5.72995 18.6468 5.57516 18.4918C5.4202 18.337 5.29727 18.1532 5.2134 17.9509C5.12952 17.7486 5.08635 17.5317 5.08635 17.3127C5.08635 17.0936 5.12952 16.8768 5.2134 16.6744C5.29727 16.4721 5.4202 16.2883 5.57516 16.1335L5.62516 16.0835C5.81728 15.8871 5.94615 15.6376 5.99517 15.3673C6.04418 15.097 6.01109 14.8182 5.90016 14.5668C5.79453 14.3204 5.61913 14.1101 5.39555 13.9621C5.17198 13.814 4.90998 13.7346 4.64183 13.7335H4.50016C4.05814 13.7335 3.63421 13.5579 3.32165 13.2453C3.00909 12.9328 2.8335 12.5089 2.8335 12.0668C2.8335 11.6248 3.00909 11.2009 3.32165 10.8883C3.63421 10.5758 4.05814 10.4002 4.50016 10.4002H4.57516C4.85099 10.3937 5.1185 10.3044 5.34291 10.1439C5.56732 9.98341 5.73826 9.75911 5.8335 9.50016C5.94443 9.24882 5.97752 8.97 5.9285 8.69967C5.87948 8.42934 5.75061 8.17989 5.5585 7.9835L5.5085 7.9335C5.35354 7.77871 5.2306 7.59489 5.14673 7.39256C5.06286 7.19023 5.01968 6.97335 5.01968 6.75433C5.01968 6.5353 5.06286 6.31843 5.14673 6.1161C5.2306 5.91377 5.35354 5.72995 5.5085 5.57516C5.66328 5.4202 5.8471 5.29727 6.04943 5.2134C6.25176 5.12952 6.46864 5.08635 6.68766 5.08635C6.90669 5.08635 7.12357 5.12952 7.3259 5.2134C7.52823 5.29727 7.71204 5.4202 7.86683 5.57516L7.91683 5.62516C8.11323 5.81728 8.36268 5.94615 8.633 5.99517C8.90333 6.04418 9.18215 6.01109 9.4335 5.90016H9.50016C9.74664 5.79453 9.95684 5.61913 10.1049 5.39555C10.253 5.17198 10.3324 4.90998 10.3335 4.64183V4.50016C10.3335 4.05814 10.5091 3.63421 10.8217 3.32165C11.1342 3.00909 11.5581 2.8335 12.0002 2.8335C12.4422 2.8335 12.8661 3.00909 13.1787 3.32165C13.4912 3.63421 13.6668 4.05814 13.6668 4.50016V4.57516C13.6679 4.84332 13.7474 5.10531 13.8954 5.32888C14.0435 5.55246 14.2537 5.72786 14.5002 5.8335C14.7515 5.94443 15.0303 5.97752 15.3007 5.9285C15.571 5.87948 15.8204 5.75061 16.0168 5.5585L16.0668 5.5085C16.2216 5.35354 16.4054 5.2306 16.6078 5.14673C16.8101 5.06286 17.027 5.01968 17.246 5.01968C17.465 5.01968 17.6819 5.06286 17.8842 5.14673C18.0866 5.2306 18.2704 5.35354 18.4252 5.5085C18.5801 5.66328 18.7031 5.8471 18.7869 6.04943C18.8708 6.25176 18.914 6.46864 18.914 6.68766C18.914 6.90669 18.8708 7.12357 18.7869 7.3259C18.7031 7.52823 18.5801 7.71204 18.4252 7.86683L18.3752 7.91683C18.183 8.11323 18.0542 8.36268 18.0052 8.633C17.9561 8.90333 17.9892 9.18215 18.1002 9.4335V9.50016C18.2058 9.74664 18.3812 9.95684 18.6048 10.1049C18.8283 10.253 19.0903 10.3324 19.3585 10.3335H19.5002C19.9422 10.3335 20.3661 10.5091 20.6787 10.8217C20.9912 11.1342 21.1668 11.5581 21.1668 12.0002C21.1668 12.4422 20.9912 12.8661 20.6787 13.1787C20.3661 13.4912 19.9422 13.6668 19.5002 13.6668H19.4252C19.157 13.6679 18.895 13.7474 18.6714 13.8954C18.4479 14.0435 18.2725 14.2537 18.1668 14.5002Z" stroke="#FAF9F6" stroke-width="1.2" stroke-linecap="round" stroke-linejoin="round"/>
</g>
<defs>
<clipPath id="clip0_143_124">
<rect width="20" height="20" fill="white" transform="translate(2 2)"/>
</clipPath>
</defs>
</svg>
